<svg xmlns="http://www.w3.org/2000/svg" xmlns:xlink="http://www.w3.org/1999/xlink" version="1.1" width="1000" height="1000" viewBox="0 0 1000 1000" xml:space="preserve">
<desc>Created with Fabric.js 3.5.0</desc>
<defs>
</defs>
<rect x="0" y="0" width="100%" height="100%" fill="#ffffff"/>
<g transform="matrix(91.8274 0 0 91.8274 500.0001 500.0001)" id="717171">
<path style="stroke: none; stroke-width: 1; stroke-dasharray: none; stroke-linecap: butt; stroke-dashoffset: 0; stroke-linejoin: miter; stroke-miterlimit: 4; is-custom-font: none; font-file-url: none; fill: rgb(40,167,69); fill-rule: nonzero; opacity: 1;" vector-effect="non-scaling-stroke" transform=" translate(-4.95, -4.6534)" d="M 0 1.17613636 C 0 0.7245 0.3584 0.357954545 0.8 0.357954545 L 9.1 0.357954545 C 9.5416 0.357954545 9.9 0.7245 9.9 1.17613636 C 9.9 1.62777273 9.5416 1.99431818 9.1 1.99431818 L 0.8 1.99431818 C 0.3584 1.99431818 0 1.62777273 0 1.17613636 Z M 9.1 3.83522727 L 0.8 3.83522727 C 0.3584 3.83522727 0 4.20177273 0 4.65340909 C 0 5.10504545 0.3584 5.47159091 0.8 5.47159091 L 9.1 5.47159091 C 9.5416 5.47159091 9.9 5.10504545 9.9 4.65340909 C 9.9 4.20177273 9.542 3.83522727 9.1 3.83522727 Z M 9.1 7.3125 L 0.8 7.3125 C 0.3584 7.3125 0 7.67904545 0 8.13068182 C 0 8.58231818 0.3584 8.94886364 0.8 8.94886364 L 9.1 8.94886364 C 9.5416 8.94886364 9.9 8.58231818 9.9 8.13068182 C 9.9 7.67904545 9.542 7.3125 9.1 7.3125 Z" stroke-linecap="round"/>
</g>
</svg>