<svg xmlns="http://www.w3.org/2000/svg" xmlns:xlink="http://www.w3.org/1999/xlink" version="1.1" width="1000" height="1000" viewBox="0 0 1000 1000" xml:space="preserve">
<desc>Created with Fabric.js 3.5.0</desc>
<defs>
</defs>
<rect x="0" y="0" width="100%" height="100%" fill="#ffffff"/>
<g transform="matrix(90.9091 0 0 90.9091 500 500)" id="633493">
<path style="stroke: none; stroke-width: 1; stroke-dasharray: none; stroke-linecap: butt; stroke-dashoffset: 0; stroke-linejoin: miter; stroke-miterlimit: 4; is-custom-font: none; font-file-url: none; fill: rgb(40,167,69); fill-rule: nonzero; opacity: 1;" vector-effect="non-scaling-stroke" transform=" translate(-5, -5)" d="M 7.94921875 5.8984375 C 7.25273438 5.8984375 6.63634766 6.24751953 6.26552734 6.77982422 L 3.99732422 5.64572266 C 4.06486328 5.44259766 4.1015625 5.22550781 4.1015625 5 C 4.1015625 4.77449219 4.06486328 4.55740234 3.99732422 4.35427734 L 6.26552734 3.22017578 C 6.63634766 3.75248047 7.25273438 4.1015625 7.94921875 4.1015625 C 9.08001953 4.1015625 10 3.18158203 10 2.05078125 C 10 0.919980469 9.08001953 2.84217094e-14 7.94921875 2.84217094e-14 C 6.81841797 2.84217094e-14 5.8984375 0.919980469 5.8984375 2.05078125 C 5.8984375 2.27628906 5.93513672 2.49337891 6.00267578 2.69650391 L 3.73447266 3.83060547 C 3.36365234 3.29830078 2.74726562 2.94921875 2.05078125 2.94921875 C 0.919980469 2.94921875 0 3.86919922 0 5 C 0 6.13080078 0.919980469 7.05078125 2.05078125 7.05078125 C 2.74726562 7.05078125 3.36365234 6.70169922 3.73447266 6.16939453 L 6.00267578 7.30349609 C 5.93513672 7.50662109 5.8984375 7.72371094 5.8984375 7.94921875 C 5.8984375 9.08001953 6.81841797 10 7.94921875 10 C 9.08001953 10 10 9.08001953 10 7.94921875 C 10 6.81841797 9.08001953 5.8984375 7.94921875 5.8984375 Z M 7.94921875 0.5859375 C 8.75693359 0.5859375 9.4140625 1.24306641 9.4140625 2.05078125 C 9.4140625 2.85849609 8.75693359 3.515625 7.94921875 3.515625 C 7.14150391 3.515625 6.484375 2.85849609 6.484375 2.05078125 C 6.484375 1.24306641 7.14150391 0.5859375 7.94921875 0.5859375 Z M 2.05078125 6.46484375 C 1.24306641 6.46484375 0.5859375 5.80771484 0.5859375 5 C 0.5859375 4.19228516 1.24306641 3.53515625 2.05078125 3.53515625 C 2.85849609 3.53515625 3.515625 4.19228516 3.515625 5 C 3.515625 5.80771484 2.85849609 6.46484375 2.05078125 6.46484375 Z M 7.94921875 9.4140625 C 7.14150391 9.4140625 6.484375 8.75693359 6.484375 7.94921875 C 6.484375 7.14150391 7.14150391 6.484375 7.94921875 6.484375 C 8.75693359 6.484375 9.4140625 7.14150391 9.4140625 7.94921875 C 9.4140625 8.75693359 8.75693359 9.4140625 7.94921875 9.4140625 Z" stroke-linecap="round"/>
</g>
</svg>